<svg height="368pt" viewBox="0 0 368 368" width="368pt" xmlns="http://www.w3.org/2000/svg">
    <path fill="currentColor" d="m184 0c-101.457031 0-184 82.542969-184 184s82.542969 184 184 184 184-82.542969 184-184-82.542969-184-184-184zm0 352c-89.9375 0-163.375-71.089844-167.59375-160h64c4.105469 53.609375 48.945312 96 103.59375 96s99.488281-42.390625 103.59375-96h64c-4.21875 88.910156-77.65625 160-167.59375 160zm-88-168c0-48.519531 39.480469-88 88-88s88 39.480469 88 88-39.480469 88-88 88-88-39.480469-88-88zm191.59375-8c-4.105469-53.609375-48.945312-96-103.59375-96s-99.488281 42.390625-103.59375 96h-64c4.21875-88.910156 77.65625-160 167.59375-160s163.375 71.089844 167.59375 160zm0 0"/>
    <path fill="currentColor" d="m184 240c30.878906 0 56-25.121094 56-56s-25.121094-56-56-56-56 25.121094-56 56 25.121094 56 56 56zm0-96c22.054688 0 40 17.945312 40 40s-17.945312 40-40 40-40-17.945312-40-40 17.945312-40 40-40zm0 0"/>
</svg>